<svg width="62" height="30" viewBox="0 0 62 30" fill="none" xmlns="http://www.w3.org/2000/svg">
<g clip-path="url(#clip0_0_1657)">
<path d="M14.7714 2.44888C13.7184 1.58539 12.0451 1.17488 8.68396 0.382164C6.59229 -0.113283 5.78447 -0.113283 5.12091 0.311386C4.06786 0.976699 3.82263 2.71784 3.8082 3.60964C3.76493 5.80376 4.63044 23.3567 5.30843 25.5084C5.81332 27.1221 6.75097 27.4194 7.76074 27.0655C8.33775 26.8673 8.58298 26.202 8.74166 25.749C9.47735 23.6115 8.1935 22.3234 8.75608 19.6763C8.88591 19.0251 9.07344 18.6287 9.34752 18.289C10.1121 17.3406 11.3382 17.1849 11.7998 17.0999C14.2377 16.6045 16.5313 13.5469 17.2237 10.8998C17.9739 8.01204 17.1516 4.43067 14.7714 2.44888ZM10.9776 12.7117C10.3861 13.2779 9.20327 14.0565 8.59741 13.6743C8.16465 13.4053 7.68861 6.73803 8.26562 6.38414C9.13114 5.86038 11.9874 7.4175 12.2182 9.71071C12.3913 11.2961 11.2228 12.4711 10.9776 12.7117Z" fill="white"/>
<path d="M32.481 3.40863C30.5723 1.57838 27.0684 -0.0702908 24.5036 0.869711C19.8105 2.5867 19.0868 12.5222 21.8274 19.3075C22.2554 20.347 24.7016 26.4456 28.1463 26.2903C30.7913 26.1663 32.5219 22.4427 32.6071 22.2209C32.6885 22.0221 34.0036 19.0552 32.8776 18.1586C32.1348 17.5621 30.9646 17.6496 30.3439 19.0566C29.6729 20.6204 28.2742 21.3542 27.603 21.3363C26.4988 21.3168 25.6537 17.3038 25.5351 16.7174C24.9627 14.0956 24.77 5.89538 26.1115 5.64773C27.1801 5.44883 29.9706 7.33223 30.5248 8.9122C30.788 9.64086 30.7388 10.2228 31.3142 10.9565C31.4121 11.0909 32.2654 12.178 33.0805 12.0547C34.2155 11.8905 35.0206 9.38126 34.6953 7.29663C34.4054 5.28872 33.0599 3.97764 32.481 3.40863Z" fill="white"/>
<path d="M40.1637 8.82617C41.6471 7.03889 41.6727 6.24867 42.5941 5.5344C42.7534 5.40474 43.6626 4.73115 44.8632 4.79486C46.1507 4.86982 47.003 5.74541 47.5568 6.31005C48.1301 6.91009 49.4459 8.24943 49.1132 9.6127C48.8601 10.6599 47.7582 11.1724 46.5311 11.7509C45.6892 12.1491 44.0484 12.7516 42.0945 13.1422C41.5971 13.2445 41.3338 13.2691 41.0413 13.4919C40.2653 14.0724 40.4917 15.0267 40.2951 16.9921C40.0298 19.6906 39.2997 21.0235 40.1324 21.8637C40.2934 22.0301 40.4609 22.1246 40.5633 22.1848C41.4284 22.6652 45.6771 22.8579 45.937 22.4924C46.0889 22.2867 45.9189 21.9994 45.709 21.4933C45.3591 20.6498 45.1969 19.833 44.8767 18.1857C44.6062 16.7749 44.475 16.056 44.843 15.5307C45.2069 15.0191 45.7734 14.9374 46.5268 14.7343C48.2636 14.264 50.2212 13.3574 51.2596 12.3531C52.6805 10.9756 52.8138 9.02074 52.8315 8.76009C53.0338 4.96415 48.901 2.47165 48.2863 2.11042C47.2895 1.51665 45.5797 0.487894 43.3063 0.738547C39.522 1.15768 37.7997 4.74998 37.5285 5.30418C37.1306 6.13077 36.4574 7.52512 37.1325 8.53979C37.5669 9.20168 38.588 9.71408 39.3536 9.47032C39.7266 9.33075 39.946 9.10087 40.1637 8.82617Z" fill="white"/>
<path d="M42.8495 24.7601C43.9915 24.7176 44.7031 25.6103 44.8991 25.861C45.1423 26.1554 45.5815 26.7005 45.4794 27.394C45.3498 28.3304 44.3535 28.7415 44.2502 28.7845C43.3116 29.1538 42.2458 28.7906 41.6034 28.1698C41.4757 28.043 40.6211 27.2258 40.8701 26.1921C41.1022 25.3159 42.0261 24.7945 42.8495 24.7601Z" fill="white"/>
</g>
<defs>
<clipPath id="clip0_0_1657">
<rect width="62" height="30" fill="white"/>
</clipPath>
</defs>
</svg>
