<svg width="87" height="85" viewBox="0 0 87 85" fill="none" xmlns="http://www.w3.org/2000/svg">
<path d="M44.2543 59.1658C44.2328 59.0591 44.1037 58.5684 43.7165 58.419C43.3938 58.291 43.2002 58.5257 42.6839 58.547C42.2321 58.5684 41.6943 58.419 41.3931 58.1203C41.1135 57.8429 41.1135 57.5015 41.135 56.3707C41.135 53.4688 41.0704 53.8956 41.135 52.9141C41.178 52.0819 41.221 51.9966 41.1565 51.7192C40.9414 50.823 40.1884 50.2683 39.543 49.7988C38.5104 49.0307 37.5208 48.7747 37.3057 48.732C36.5742 48.54 35.1974 48.2199 34.0788 48.86C33.5409 49.1801 32.8956 49.6068 33.0461 50.4176C33.2398 51.5058 34.466 51.3138 34.5736 51.2711C35.0468 51.0791 36.0795 50.695 36.8539 50.7803C37.1981 50.823 37.9296 51.1644 38.0801 51.3138C38.5965 51.8259 38.9192 52.7007 38.5965 53.0421C38.4244 53.2341 38.1017 53.2341 38.0586 53.2128C37.6499 53.0848 37.5638 53.0207 37.3917 52.9141C36.6603 52.4446 35.5631 52.6793 35.391 52.7434C34.423 52.9994 33.9282 53.6822 33.6915 53.9809C33.0461 54.8557 32.9816 55.7519 32.9601 56.1573C32.9386 56.5627 32.8525 57.9283 33.8636 59.1231C34.6381 60.0406 35.9289 60.7021 37.069 60.5314C37.5854 60.4674 38.1662 60.382 38.704 59.9553C38.9622 59.7419 39.1558 59.5072 39.5 59.5072C39.7797 59.4859 39.9948 59.6566 40.2745 59.8486C41.135 60.4674 41.5867 60.7661 41.7588 60.8514C42.2752 61.0648 43.1142 61.1502 43.695 60.6594C44.0822 60.3394 44.3834 59.7419 44.2543 59.1658ZM37.4993 57.8856C36.7679 58.2483 35.7783 58.0563 35.3265 57.4375C34.9178 56.8614 35.1114 56.1786 35.1544 55.9653C35.1974 55.8159 35.4126 54.9838 36.23 54.6424C36.3806 54.5784 36.983 54.3436 37.6069 54.6637C38.1877 54.9838 38.3383 55.5812 38.3598 55.6665C38.661 56.5627 38.2738 57.5015 37.4993 57.8856Z" fill="#F3F243"/>
<path d="M63.659 39.1513C63.6375 38.9806 63.4439 38.1058 62.777 37.8071C62.2176 37.551 61.8734 37.9351 60.9699 37.9351C60.1739 37.9351 59.2489 37.6364 58.7541 37.0816C58.2808 36.5695 58.3453 35.9934 58.4314 34.0304C58.6895 28.9949 58.5389 29.7416 58.711 28.0347C58.8616 26.5838 58.9262 26.4557 58.8401 25.965C58.5174 24.3647 57.2912 23.3832 56.2156 22.5084C54.473 21.1001 52.7735 20.588 52.4078 20.46C51.16 20.076 48.7936 19.3932 46.7929 20.4387C45.8248 20.9294 44.6847 21.6336 44.8568 23.0418C45.0934 24.9408 47.2232 24.7061 47.4383 24.6421C48.2773 24.3434 50.1059 23.7673 51.4182 23.9806C51.999 24.0873 53.2683 24.7488 53.5049 25.0262C54.3439 25.9437 54.8387 27.5013 54.2579 28.0774C53.9567 28.3761 53.3974 28.3547 53.3113 28.3334C52.6014 28.0987 52.4508 27.9707 52.1711 27.7573C50.9234 26.8825 49.0303 27.2239 48.7076 27.2879C47.0081 27.6506 46.083 28.8028 45.6743 29.2936C44.4695 30.7445 44.2974 32.3021 44.2114 33.0062C44.1468 33.7103 43.8887 36.0788 45.5022 38.2338C46.7714 39.8981 48.9442 41.1356 50.9449 40.9436C51.8484 40.8583 52.8596 40.7516 53.8276 40.0901C54.3009 39.7701 54.6666 39.3647 55.2475 39.3647C55.7423 39.3647 56.0865 39.6421 56.5813 40.0261C58.0441 41.157 58.7541 41.7331 59.0768 41.8824C59.9373 42.2878 61.4001 42.5012 62.4758 41.7331C63.2502 41.1783 63.8311 40.1541 63.659 39.1513ZM52.0851 36.5055C50.7728 37.0816 49.0733 36.6549 48.3419 35.5453C47.675 34.5212 48.0622 33.3476 48.1913 32.9635C48.2773 32.7075 48.7291 31.2779 50.1704 30.7658C50.4286 30.6805 51.5042 30.2964 52.5369 30.9152C53.5264 31.5126 53.7416 32.5581 53.7631 32.7288C54.1933 34.2864 53.4404 35.8867 52.0851 36.5055Z" fill="#F3F243"/>
<path d="M38.4026 39.1513C38.3811 38.9806 38.1875 38.1058 37.5206 37.8071C36.9613 37.551 36.6171 37.9351 35.7135 37.9351C34.9176 37.9351 33.9925 37.6364 33.4977 37.0816C33.0244 36.5695 33.089 35.9934 33.175 34.0304C33.4332 28.9949 33.2826 29.7416 33.4547 28.0347C33.6053 26.5838 33.6698 26.4557 33.5838 25.965C33.2611 24.3647 32.0348 23.3832 30.9592 22.5084C29.2167 21.1001 27.5172 20.588 27.1514 20.46C25.9037 20.076 23.5373 19.3932 21.5366 20.4387C20.5685 20.9294 19.4283 21.6336 19.6004 23.0418C19.8371 24.9408 21.9668 24.7061 22.182 24.6421C23.021 24.3434 24.8496 23.7673 26.1618 23.9806C26.7427 24.0873 28.0119 24.7488 28.2486 25.0262C29.0876 25.9437 29.5824 27.5013 29.0015 28.0774C28.7004 28.3761 28.141 28.3547 28.055 28.3334C27.345 28.0987 27.1945 27.9707 26.9148 27.7573C25.667 26.8825 23.7739 27.2239 23.4512 27.2879C21.7517 27.6506 20.8267 28.8028 20.4179 29.2936C19.2132 30.7445 19.0411 32.3021 18.955 33.0062C18.8905 33.7103 18.6323 36.0788 20.2458 38.2338C21.5151 39.8981 23.6879 41.1356 25.6886 40.9436C26.5921 40.8583 27.6032 40.7516 28.5713 40.0901C29.0446 39.7701 29.4103 39.3647 29.9911 39.3647C30.4859 39.3647 30.8301 39.6421 31.3249 40.0261C32.7878 41.157 33.4977 41.7331 33.8204 41.8824C34.6809 42.2878 36.1438 42.5012 37.2194 41.7331C37.9939 41.1783 38.5747 40.1541 38.4026 39.1513ZM26.8287 36.5055C25.5165 37.0816 23.8169 36.6549 23.0855 35.5453C22.4186 34.5212 22.8058 33.3476 22.9349 32.9635C23.021 32.7075 23.4727 31.2779 24.9141 30.7658C25.1722 30.6805 26.2479 30.2964 27.2805 30.9152C28.2701 31.5126 28.4852 32.5581 28.5067 32.7288C28.937 34.2864 28.184 35.8867 26.8287 36.5055Z" fill="#F3F243"/>
<path d="M64.089 60.1476C64.0675 60.0409 63.96 59.5502 63.5727 59.3795C63.25 59.2301 63.0564 59.4435 62.5401 59.4435C62.0884 59.4435 61.5505 59.2728 61.2709 58.9527C61.0127 58.654 61.0342 58.334 61.0988 57.2031C61.2494 54.3013 61.1633 54.728 61.2709 53.7465C61.3569 52.9143 61.2278 49.7778 61.0342 48.4762C60.9052 47.6228 60.5825 45.1477 59.7865 45.2117C57.5491 45.4037 58.2806 48.8176 58.3666 50.0979C58.4312 51.0154 59.0335 53.4264 58.7108 53.7678C58.5387 53.9385 58.216 53.9172 58.173 53.9172C57.8503 53.8959 57.6352 53.6825 57.5061 53.5971C56.8177 53.0637 55.699 53.2771 55.5269 53.3198C54.5589 53.5331 54.021 54.1946 53.7844 54.472C53.096 55.3041 52.9884 56.2003 52.9454 56.6057C52.9024 57.0111 52.7518 58.3766 53.6983 59.6142C54.4298 60.5744 55.6775 61.2785 56.8392 61.1718C57.3555 61.1291 57.9364 61.0651 58.4957 60.681C58.7754 60.489 58.969 60.2543 59.3132 60.2543C59.5929 60.2543 59.808 60.425 60.0877 60.6384C60.9267 61.2998 61.3354 61.6199 61.529 61.7052C62.0238 61.9399 62.8628 62.068 63.4867 61.6199C63.8524 61.3212 64.1966 60.7451 64.089 60.1476ZM57.4201 58.782C56.6671 59.1234 55.6775 58.8674 55.2688 58.2273C54.8815 57.6512 55.1182 56.9471 55.1827 56.7337C55.2258 56.5843 55.5054 55.7735 56.3229 55.4748C56.4735 55.4321 57.0974 55.1974 57.6782 55.5601C58.2591 55.9015 58.3666 56.5203 58.3881 56.6057C58.7754 58.0139 58.0655 58.4833 57.4201 58.782Z" fill="#F3F243"/>
<path d="M16.3521 3.68942C14.7817 2.38786 12.2862 1.76908 7.27367 0.574204C4.15431 -0.172594 2.94959 -0.172594 1.96 0.467519C0.389559 1.47036 0.0238404 4.09482 0.00232751 5.43906C-0.062211 8.7463 1.22856 35.2043 2.23966 38.4475C2.99261 40.8799 4.39095 41.328 5.89685 40.7946C6.75736 40.4959 7.12308 39.493 7.35972 38.8102C8.45688 35.5883 6.54223 33.6467 7.38123 29.6566C7.57485 28.6751 7.85452 28.0777 8.26326 27.5656C9.40344 26.136 11.232 25.9013 11.9204 25.7733C15.5561 25.0265 18.9767 20.4177 20.0093 16.4277C21.1279 12.0749 19.9017 6.67661 16.3521 3.68942ZM10.6942 19.1588C9.81219 20.0123 8.04813 21.1858 7.14459 20.6097C6.49921 20.2043 5.78928 10.1546 6.6498 9.62112C7.94057 8.83165 12.2001 11.1787 12.5443 14.6353C12.8025 17.0251 11.0599 18.7961 10.6942 19.1588Z" fill="#F3F243"/>
<path d="M33.6483 13.3125C32.6802 12.8858 31.497 13.2058 30.744 13.7392C30.5504 13.8673 29.3887 14.6994 29.5393 15.7876C29.6684 16.7051 30.701 17.3025 31.454 17.4732C32.6372 17.7506 33.2395 17.0465 34.014 17.4092C34.81 17.7933 35.0036 18.9668 35.0896 19.5856C35.5844 23.2129 35.6059 28.9312 35.9501 32.6866C36.0577 33.8814 37.0473 34.927 37.6927 35.0976C38.4671 35.311 40.7905 34.9696 41.1132 33.412C41.5435 31.3637 40.4033 29.9127 39.4137 22.6581C39.091 20.3537 38.7038 19.2442 39.5858 18.348C40.2742 17.6653 41.3068 17.0038 42.2964 17.2599C44.0605 17.7079 44.3186 19.5643 45.5018 19.5216C46.3839 19.4789 47.2874 18.3907 47.3519 17.4092C47.481 15.7236 45.2222 14.3367 43.6517 13.8886C41.9952 13.4192 40.3388 13.3978 38.6608 14.294C37.5421 14.8914 37.4991 15.5529 36.7676 15.3822C35.6705 15.1261 34.939 13.8673 33.6483 13.3125Z" fill="#F3F243"/>
<path d="M18.6757 42.6511C16.6965 41.2856 13.319 40.3254 11.1677 41.5629C7.23082 43.8247 8.06982 52.9143 11.5334 58.6326C12.0712 59.5074 15.1691 64.6497 18.2239 63.9882C20.5688 63.4761 21.5584 59.8488 21.6014 59.6354C21.6444 59.4434 22.3759 56.5629 21.2357 55.9228C20.4827 55.4961 19.4501 55.7521 19.1059 57.1177C18.7402 58.6326 17.6 59.5074 16.9977 59.5928C16.0081 59.7421 14.6528 56.2429 14.4591 55.7308C13.5556 53.4477 12.1573 46.0651 13.319 45.6383C14.244 45.2969 17.0192 46.5772 17.7506 47.9214C18.0948 48.5402 18.1378 49.0736 18.7617 49.6497C18.8693 49.7564 19.7943 50.6099 20.5042 50.3752C21.4938 50.0551 21.838 47.6654 21.2357 45.8304C20.6763 44.0594 19.278 43.0779 18.6757 42.6511Z" fill="#F3F243"/>
<path d="M23.0859 51.6762C22.9783 52.0602 23.0643 55.6875 23.2795 57.0531C23.5376 58.568 23.4946 60.147 24.3981 61.1285C24.9145 61.6832 25.7965 62.11 26.5064 62.0033C28.6792 61.7259 28.3135 60.2963 29.3461 60.5097C29.4967 60.531 29.7333 60.5951 29.9915 60.9364C30.6369 61.7259 31.4113 62.3874 31.8631 62.3447C32.2934 62.302 33.0678 61.5979 32.9818 60.8724C32.8742 59.9549 30.4648 60.3177 30.7444 56.8397C30.938 54.45 30.6584 53.5752 31.3038 52.423C32.2073 50.78 29.6688 50.1399 28.8298 51.0574C28.3995 51.5268 28.5501 54.6207 28.3995 55.7729C28.2489 56.8397 28.2274 58.7601 27.496 58.9094C26.2052 59.1655 25.861 58.0773 25.6244 56.8184C25.3662 55.3675 25.6459 53.9806 25.9686 52.615C26.1407 51.8682 25.818 51.1427 25.2587 50.8013C24.4627 50.3106 23.3225 50.7587 23.0859 51.6762Z" fill="#F3F243"/>
<path d="M51.7191 56.2C51.8051 55.7946 51.59 52.21 51.3103 50.8231C51.0091 49.3081 50.9661 47.7505 50.0196 46.7904C49.4817 46.2569 48.5997 45.8729 47.8683 46.0009C45.717 46.3636 46.1472 47.7719 45.0931 47.6012C44.9425 47.5798 44.7059 47.5158 44.4262 47.2171C43.7378 46.449 42.9418 45.8302 42.5116 45.8942C42.0813 45.9582 41.3499 46.6837 41.4574 47.4091C41.608 48.3266 43.996 47.8786 43.8454 51.3565C43.7378 53.7462 44.0605 54.5997 43.4581 55.7946C42.6191 57.4802 45.1792 58.0137 45.9751 57.0535C46.3839 56.5627 46.1042 53.4902 46.2118 52.3167C46.3193 51.2285 46.2548 49.3295 46.9862 49.1588C48.277 48.8601 48.6642 49.9269 48.9439 51.1645C49.2666 52.594 49.03 54.0023 48.7718 55.3892C48.6427 56.136 48.9869 56.8615 49.5463 57.1815C50.4068 57.6083 51.5254 57.1175 51.7191 56.2Z" fill="#F3F243"/>
<path d="M69.8114 51.5907C68.7358 49.8197 66.1972 48.6888 64.2826 49.6917C62.1743 50.8012 62.2389 53.7884 62.8412 55.4314C63.0133 55.9008 63.5512 57.4157 65.1431 58.0345C65.2292 58.0558 66.7781 58.6533 68.241 57.9065C70.1986 56.8823 71.1452 53.7884 69.8114 51.5907ZM67.3589 55.3247C66.6705 55.7727 65.6594 55.6661 65.1431 55.09C64.6698 54.5565 64.7989 53.8524 64.8419 53.639C64.8634 53.4897 65.014 52.6362 65.7885 52.2308C65.9176 52.1668 66.4984 51.8467 67.1438 52.1028C67.7677 52.3588 67.9613 52.9349 68.0043 53.0416C68.37 53.8951 68.0689 54.8766 67.3589 55.3247Z" fill="#F3F243"/>
<path d="M68.0045 26.9464C69.3598 23.7245 69.0586 22.5723 70.0697 21.1427C70.2418 20.8867 71.2529 19.5211 72.9955 19.0944C74.8671 18.6463 76.459 19.5425 77.4916 20.1186C78.5673 20.7373 81.0197 22.1029 81.1273 24.2153C81.2134 25.8369 79.858 27.0531 78.3521 28.4187C77.3195 29.3575 75.2328 30.9365 72.6082 32.3447C71.9413 32.7074 71.5756 32.8568 71.2529 33.3049C70.3924 34.4784 71.1238 35.7586 71.6832 38.6818C72.4576 42.6932 71.9843 44.9336 73.5333 45.7871C73.8345 45.9578 74.1141 46.0218 74.2862 46.0644C75.7276 46.3845 81.8803 44.8269 82.0954 44.1868C82.2245 43.8241 81.8587 43.4827 81.3424 42.8425C80.4819 41.7757 79.9011 40.6662 78.7394 38.4258C77.7498 36.5054 77.255 35.5239 77.5562 34.6064C77.8574 33.7103 78.6318 33.3475 79.6214 32.7288C81.9018 31.2992 84.3112 29.1441 85.3653 27.2451C86.8067 24.642 86.1613 21.7615 86.0753 21.3774C84.7415 15.8085 77.7713 13.9948 76.7387 13.7388C75.0607 13.312 72.178 12.5652 69.0371 13.9095C63.8095 16.1499 62.8844 22.0816 62.7338 22.9991C62.5187 24.3646 62.153 26.669 63.5513 27.8426C64.4548 28.6107 66.1329 28.9094 67.1224 28.2266C67.5957 27.8639 67.8109 27.4372 68.0045 26.9464Z" fill="#F3F243"/>
<path d="M78.6531 48.796C80.2665 48.2412 81.6649 49.2227 82.0521 49.5001C82.5254 49.8201 83.3859 50.4176 83.5365 51.4631C83.7516 52.8713 82.5039 53.8955 82.3748 54.0022C81.1916 54.941 79.5136 54.877 78.3304 54.2582C78.0937 54.1302 76.5233 53.3194 76.4373 51.7191C76.3942 50.3536 77.4914 49.2014 78.6531 48.796Z" fill="#F3F243"/>
<path d="M34.9395 46.6413C34.9395 46.0439 36.639 44.8703 37.8652 44.2942C38.7903 43.8675 39.6077 43.4834 40.038 44.0382C40.3392 44.4222 40.4467 45.2331 40.1671 45.6385C39.6508 46.4493 38.6397 45.6385 37.2844 46.8547C36.9401 47.1534 35.9721 47.5588 35.4988 47.4521C35.09 47.3454 34.9395 46.9614 34.9395 46.6413Z" fill="#F3F243"/>
<path d="M4.08091 67.1906L3.0145 71.8502L7.02075 69.1917L7.79894 69.7062L4.68617 74.1943L4.08091 73.7941L5.29143 72.0503L6.64606 70.1922L2.63981 72.7936L2.20748 72.5077L3.24507 67.8767L2.00573 69.792L0.795203 71.5358L0.189941 71.1355L3.30272 66.6475L4.08091 67.1906Z" fill="#F3F243"/>
<path d="M8.31761 76.1669C8.31761 76.0812 8.34644 75.9382 8.4329 75.7381C8.00057 75.8811 7.56824 75.8525 7.16473 75.6524C6.81887 75.4523 6.55947 75.2236 6.44418 74.8805C6.3289 74.5661 6.35772 74.2516 6.50183 73.9372C6.70358 73.5656 6.9918 73.3655 7.39531 73.3083C7.79882 73.2511 8.25997 73.3655 8.74994 73.6227L9.3552 73.9372L9.49931 73.6513C9.6146 73.4512 9.64342 73.2225 9.58578 73.051C9.52814 72.8509 9.3552 72.6794 9.12463 72.565C8.89405 72.4507 8.6923 72.3935 8.49054 72.4507C8.28879 72.4793 8.14468 72.565 8.05822 72.7366L7.45295 72.4221C7.53942 72.2506 7.71235 72.1077 7.91411 71.9933C8.11586 71.879 8.37526 71.8504 8.63465 71.879C8.89405 71.9075 9.18227 71.9647 9.44167 72.1077C9.84518 72.3364 10.1334 72.5936 10.2487 72.9367C10.364 73.2797 10.3352 73.6227 10.1622 73.9658L9.26874 75.5952C9.09581 75.9097 9.00934 76.1955 8.98052 76.4528L8.9517 76.51L8.31761 76.1669ZM7.56824 75.1378C7.77 75.2522 7.97175 75.2808 8.20232 75.2808C8.4329 75.2808 8.63465 75.2236 8.77876 75.0807L9.18227 74.3374L8.6923 74.0801C7.94293 73.6799 7.45295 73.7085 7.22238 74.1373C7.10709 74.3374 7.10709 74.5089 7.16473 74.6804C7.22238 74.9091 7.36649 75.0521 7.56824 75.1378Z" fill="#F3F243"/>
<path d="M13.3037 74.68C13.2173 74.6229 13.102 74.5657 13.0155 74.5085C12.612 74.3084 12.2373 74.3656 11.9203 74.6515L10.7098 77.2528L10.0757 76.967L11.7474 73.2793L12.3526 73.5652L12.1797 73.994C12.5256 73.7653 12.9002 73.7367 13.3037 73.9082C13.419 73.9654 13.5055 74.0226 13.5631 74.0797L13.3037 74.68Z" fill="#F3F243"/>
<path d="M14.3129 78.2537C14.5435 78.3394 14.7741 78.3394 15.0047 78.2822C15.2352 78.1965 15.4082 78.0821 15.4946 77.882L16.0999 78.1107C16.0134 78.3108 15.8405 78.5109 15.6387 78.6539C15.437 78.7968 15.1776 78.8826 14.8894 78.9111C14.6012 78.9397 14.3418 78.9112 14.0824 78.7968C13.5636 78.5967 13.2177 78.2537 13.0448 77.7963C12.8718 77.3389 12.9007 76.7958 13.1312 76.224L13.1601 76.1097C13.3042 75.7381 13.5059 75.4522 13.7365 75.2235C13.9959 74.9948 14.2553 74.8519 14.5723 74.7947C14.8894 74.7375 15.2064 74.7661 15.5523 74.909C15.9846 75.0806 16.2728 75.3378 16.4746 75.7095C16.6475 76.0811 16.6763 76.4527 16.5322 76.8815L15.927 76.6528C16.0134 76.3955 15.9846 76.1668 15.8981 75.9382C15.7829 75.7095 15.6099 75.5665 15.3793 75.4522C15.0623 75.3378 14.7453 75.3378 14.4859 75.5094C14.1976 75.6809 13.9959 75.9667 13.823 76.4241L13.7653 76.5385C13.5924 76.9673 13.5636 77.3389 13.65 77.6533C13.7653 77.9106 13.9671 78.1393 14.3129 78.2537Z" fill="#F3F243"/>
<path d="M19.0394 80.3974C19.0394 80.3116 19.0394 80.1687 19.0683 79.9686C18.6648 80.1973 18.2324 80.2259 17.8001 80.0829C17.4254 79.9686 17.1372 79.7685 16.9643 79.454C16.7913 79.1681 16.7625 78.8537 16.849 78.5107C16.9643 78.1105 17.2237 77.8532 17.5983 77.7102C17.973 77.5959 18.4342 77.6245 19.0106 77.796L19.6447 77.9961L19.7312 77.6817C19.8176 77.453 19.7888 77.2529 19.7023 77.0528C19.6159 76.8812 19.4141 76.7383 19.1547 76.6525C18.9242 76.5668 18.6936 76.5668 18.4918 76.6525C18.2901 76.7097 18.1748 76.8526 18.1171 76.9956L17.4542 76.7955C17.5119 76.5954 17.656 76.4524 17.8289 76.3095C18.0307 76.1666 18.2612 76.0808 18.5206 76.0522C18.78 76.0236 19.0683 76.0522 19.3565 76.138C19.8176 76.2809 20.1059 76.5096 20.3076 76.7955C20.4805 77.1099 20.5094 77.453 20.3941 77.8246L19.8176 79.5969C19.7023 79.94 19.6447 80.2544 19.6735 80.4831L19.6447 80.5403L19.0394 80.3974ZM18.0883 79.5398C18.2901 79.597 18.5206 79.6255 18.7224 79.5684C18.953 79.5112 19.1259 79.4254 19.27 79.2825L19.5294 78.4821L19.0106 78.3106C18.2036 78.0533 17.7136 78.1676 17.5695 78.625C17.5119 78.8251 17.5119 79.0252 17.6272 79.1681C17.7136 79.3683 17.8866 79.4826 18.0883 79.5398Z" fill="#F3F243"/>
<path d="M23.4495 80.4832C23.5071 80.3117 23.4783 80.1401 23.363 79.9972C23.2477 79.8543 23.046 79.7114 22.7001 79.5398C22.3543 79.3683 22.1237 79.2254 21.9508 79.0824C21.7778 78.9395 21.6625 78.768 21.6049 78.5965C21.5473 78.425 21.5473 78.2534 21.6049 78.0533C21.6914 77.7389 21.8931 77.5102 22.239 77.3387C22.5848 77.1957 22.9595 77.1671 23.363 77.2815C23.8242 77.3958 24.1412 77.5959 24.3718 77.9104C24.6024 78.2249 24.66 78.5393 24.5736 78.9109L23.8818 78.7394C23.9395 78.5679 23.8818 78.3678 23.7665 78.1963C23.6513 78.0247 23.4783 77.9104 23.2189 77.8532C22.9595 77.796 22.7578 77.796 22.6137 77.8532C22.4407 77.9104 22.3543 78.0533 22.2966 78.2249C22.2678 78.3964 22.2966 78.5107 22.3831 78.6536C22.4984 78.768 22.7001 78.9109 23.0172 79.0824C23.3342 79.254 23.5936 79.3969 23.7665 79.5684C23.9395 79.7399 24.0836 79.8829 24.1412 80.0544C24.1989 80.2259 24.1989 80.426 24.1412 80.6261C24.0548 80.9692 23.8242 81.2264 23.5071 81.3694C23.1901 81.5123 22.7866 81.5123 22.3254 81.398C22.0084 81.3122 21.749 81.1978 21.5184 81.0263C21.3167 80.8548 21.1437 80.6547 21.0573 80.426C20.9708 80.1973 20.9708 79.9686 21.0285 79.7399L21.6914 79.9115C21.6337 80.1401 21.6914 80.3403 21.8355 80.5118C21.9796 80.6833 22.1813 80.7976 22.4407 80.8834C22.7001 80.9406 22.9019 80.9406 23.1036 80.8834C23.3054 80.8262 23.3919 80.6547 23.4495 80.4832Z" fill="#F3F243"/>
<path d="M24.6598 82.9992L24.3428 82.6562C24.631 82.3989 24.8327 82.0845 24.9192 81.7414L25.0633 81.1411L25.7262 81.284L25.6109 81.8272C25.5533 82.0845 25.438 82.3132 25.2651 82.5133C25.0633 82.7134 24.8616 82.8849 24.6598 82.9992Z" fill="#F3F243"/>
<path d="M31.0292 83.0847C31.0004 82.9989 31.0004 82.856 31.0004 82.6559C30.6257 82.9417 30.2222 83.0275 29.7611 82.9703C29.3576 82.9132 29.0693 82.7416 28.8388 82.4844C28.6082 82.2271 28.5505 81.9126 28.6082 81.5696C28.6658 81.1408 28.8964 80.8549 29.2423 80.6834C29.5881 80.5119 30.0781 80.4547 30.6546 80.5691L31.3175 80.6834L31.3751 80.369C31.4039 80.1403 31.3751 79.9402 31.2598 79.7686C31.1445 79.5971 30.9428 79.5114 30.6546 79.4542C30.3952 79.4256 30.1934 79.4542 30.0205 79.54C29.8475 79.6257 29.7323 79.7686 29.7034 79.9402L29.0117 79.8258C29.0405 79.6257 29.1558 79.4542 29.3287 79.2827C29.5017 79.1111 29.7323 78.9968 29.9916 78.9396C30.251 78.8825 30.5393 78.8539 30.8275 78.911C31.2886 78.9968 31.6345 79.1683 31.8651 79.4256C32.0957 79.7115 32.1821 80.0259 32.1245 80.4547L31.8363 82.2842C31.7786 82.6559 31.7786 82.9417 31.8363 83.1704V83.2276L31.0292 83.0847ZM29.9916 82.37C30.1934 82.3986 30.424 82.37 30.6257 82.3128C30.8275 82.2271 31.0004 82.1127 31.1157 81.9412L31.2598 81.1122L30.7122 81.0264C29.8764 80.8835 29.4152 81.055 29.3287 81.5696C29.2999 81.7697 29.3287 81.9698 29.4729 82.1127C29.5881 82.2557 29.7611 82.3414 29.9916 82.37Z" fill="#F3F243"/>
<path d="M35.2662 80.1689C35.151 80.1403 35.0645 80.1117 34.9204 80.1117C34.4592 80.0545 34.1422 80.1974 33.9116 80.5691L33.5658 83.4277L32.874 83.342L33.364 79.3398L34.0269 79.4256L33.9693 79.883C34.2287 79.5399 34.5745 79.4256 35.0069 79.4542C35.151 79.4828 35.2374 79.5114 35.2951 79.54L35.2662 80.1689Z" fill="#F3F243"/>
<path d="M37.2263 78.7679L37.1399 79.7398L37.8892 79.797L37.8316 80.3401L37.0822 80.283L36.8516 82.77C36.8228 82.9415 36.8516 83.0559 36.9093 83.1416C36.9669 83.2274 37.0822 83.2845 37.2551 83.2845C37.3416 83.2845 37.4569 83.2846 37.601 83.256L37.5434 83.7991C37.3704 83.8277 37.1687 83.8277 36.9957 83.8277C36.6787 83.7991 36.4481 83.6848 36.3328 83.4847C36.1887 83.2845 36.1311 82.9987 36.1599 82.6842L36.3905 80.1972L35.6411 80.14L35.6988 79.5969L36.4481 79.6541L36.5346 78.6821L37.2263 78.7679Z" fill="#F3F243"/>
<path d="M39.2147 83.9425L38.5229 83.8853L38.8112 79.8546L39.5029 79.9118L39.2147 83.9425ZM38.8112 78.7969C38.8112 78.6826 38.8688 78.5968 38.9265 78.511C39.0129 78.4253 39.0994 78.3967 39.2435 78.4253C39.3876 78.4539 39.4741 78.4824 39.5317 78.5682C39.5894 78.654 39.6182 78.7397 39.6182 78.8541C39.6182 78.9684 39.5605 79.0542 39.5029 79.1399C39.4164 79.1971 39.33 79.2543 39.1859 79.2257C39.0417 79.1971 38.9553 79.1685 38.8976 79.0828C38.84 78.997 38.8112 78.9112 38.8112 78.7969Z" fill="#F3F243"/>
<path d="M42.904 83.0563C42.904 82.8562 42.8464 82.7133 42.7022 82.6275C42.5581 82.5132 42.3276 82.4274 41.9817 82.3417C41.6358 82.2559 41.3476 82.1415 41.1459 82.0558C40.9441 81.9414 40.8 81.8271 40.7135 81.6556C40.6271 81.5126 40.5694 81.3411 40.5982 81.141C40.5982 80.798 40.7712 80.5407 41.0594 80.312C41.3476 80.0833 41.7223 79.9976 42.1546 79.9976C42.6158 80.0261 42.9905 80.1405 43.2787 80.3978C43.5669 80.6551 43.6822 80.9409 43.6822 81.3125L42.9905 81.284C42.9905 81.0838 42.9328 80.9409 42.7599 80.798C42.587 80.6551 42.414 80.5693 42.1546 80.5693C41.8952 80.5693 41.6935 80.5979 41.5494 80.7122C41.4053 80.8266 41.3188 80.9695 41.3188 81.141C41.3188 81.3125 41.3764 81.4269 41.4917 81.5126C41.6358 81.5984 41.8664 81.6842 42.2123 81.7699C42.5581 81.8557 42.8464 81.97 43.0481 82.0844C43.2499 82.1987 43.4228 82.3417 43.5093 82.4846C43.5957 82.6275 43.6534 82.8276 43.6534 83.0277C43.6534 83.3994 43.4804 83.6852 43.1922 83.8853C42.904 84.0854 42.5005 84.1998 42.0393 84.1712C41.7223 84.1712 41.4341 84.0854 41.1747 83.9711C40.9153 83.8567 40.7423 83.6852 40.5982 83.4565C40.4541 83.2564 40.3965 83.0277 40.3965 82.7705L41.0882 82.799C41.0882 83.0277 41.1747 83.2278 41.3476 83.3708C41.5205 83.5137 41.7511 83.5995 42.0393 83.5995C42.2987 83.5995 42.5293 83.5709 42.6734 83.4565C42.8175 83.3422 42.904 83.2278 42.904 83.0563Z" fill="#F3F243"/>
<path d="M45.5847 79.1396V80.1116H46.334V80.6547H45.5847V83.1703C45.5847 83.3419 45.6135 83.4562 45.6711 83.542C45.7288 83.6277 45.8441 83.6563 46.017 83.6563C46.1034 83.6563 46.2187 83.6563 46.3628 83.5991V84.1709C46.1899 84.228 45.9882 84.2566 45.8152 84.2566C45.4982 84.2566 45.2676 84.1709 45.1235 83.9708C44.9794 83.7707 44.8929 83.5134 44.8929 83.1703V80.6547H44.1436V80.1116H44.8929V79.1396H45.5847Z" fill="#F3F243"/>
<path d="M49.9654 83.9995C49.9077 83.9137 49.8789 83.7708 49.8501 83.5707C49.5619 83.9137 49.1872 84.1138 48.726 84.1424C48.3225 84.171 47.9767 84.0852 47.7173 83.8851C47.4579 83.685 47.2849 83.3992 47.2561 83.0561C47.2273 82.6273 47.3714 82.2843 47.6596 82.0556C47.9767 81.7983 48.409 81.6554 48.9854 81.5982L49.6483 81.541L49.6195 81.2266C49.5907 80.9979 49.5042 80.7978 49.3601 80.6549C49.216 80.5119 48.9854 80.4548 48.6972 80.4833C48.4378 80.5119 48.2361 80.5691 48.092 80.712C47.919 80.855 47.8614 80.9979 47.8614 81.1694L47.1696 81.2266C47.1408 81.0265 47.2273 80.8264 47.3426 80.6263C47.4867 80.4262 47.6596 80.2546 47.8902 80.1403C48.1208 80.026 48.409 79.9402 48.6972 79.9116C49.1584 79.883 49.533 79.9688 49.8213 80.1689C50.1095 80.369 50.2536 80.6834 50.3112 81.1122L50.4554 82.9704C50.4842 83.342 50.5418 83.6278 50.6571 83.8565V83.9137L49.9654 83.9995ZM48.7549 83.5421C48.9854 83.5135 49.1872 83.4563 49.3601 83.342C49.5619 83.2276 49.6772 83.0561 49.7636 82.8846L49.706 82.0556L49.1584 82.0842C48.2937 82.1414 47.8902 82.4272 47.9478 82.9132C47.9767 83.1419 48.0343 83.2848 48.2072 83.3992C48.3514 83.5135 48.5243 83.5707 48.7549 83.5421Z" fill="#F3F243"/>
<path d="M55.1535 82.17L55.4705 78.9969L56.191 78.854L55.5281 83.7423C55.4129 84.457 55.0958 84.8572 54.5482 84.9715L54.4041 85.0001H54.1447L54.0294 84.457L54.2312 84.4284C54.4617 84.3712 54.6347 84.2854 54.7499 84.1711C54.8652 84.0567 54.9229 83.8566 54.9517 83.5994L55.0093 83.1706L52.7612 79.5401L53.5106 79.3972L55.1535 82.17Z" fill="#F3F243"/>
<path d="M59.3325 76.9956L59.6208 77.939L60.3413 77.7389L60.4854 78.2534L59.7649 78.4535L60.4566 80.8548C60.5142 80.9977 60.5719 81.1121 60.6584 81.1692C60.7448 81.2264 60.8601 81.2264 61.033 81.1978C61.1195 81.1692 61.206 81.1406 61.3501 81.0549L61.4942 81.598C61.3213 81.6838 61.1771 81.7696 61.0042 81.8267C60.716 81.9125 60.4566 81.8839 60.2548 81.741C60.0531 81.598 59.909 81.3693 59.7937 81.0549L59.102 78.6536L58.3814 78.8537L58.2373 78.3392L58.9579 78.1391L58.6696 77.1957L59.3325 76.9956Z" fill="#F3F243"/>
<path d="M61.5232 79.4257C61.4079 79.0541 61.3502 78.6825 61.4079 78.3395C61.4655 77.9964 61.5808 77.682 61.7826 77.4247C61.9843 77.1674 62.2725 76.9959 62.6184 76.8815C63.1372 76.71 63.6272 76.7386 64.0883 76.9959C64.5495 77.2532 64.8665 77.682 65.0683 78.2823L65.0971 78.3395C65.2124 78.7111 65.27 79.0827 65.2124 79.4257C65.1547 79.7688 65.0394 80.0832 64.8377 80.3119C64.6359 80.5692 64.3477 80.7407 64.0018 80.8551C63.483 81.0266 62.9931 80.998 62.5319 80.7407C62.0708 80.4834 61.7537 80.0546 61.552 79.4829L61.5232 79.4257ZM62.2149 79.2828C62.359 79.7116 62.5607 80.0261 62.849 80.1976C63.1372 80.3691 63.4542 80.4263 63.7713 80.3119C64.1171 80.1976 64.3189 79.9689 64.4342 79.6544C64.5495 79.34 64.5206 78.9398 64.3477 78.4538C64.2036 78.025 64.0018 77.7391 63.6848 77.539C63.3966 77.3389 63.0795 77.3103 62.7625 77.4247C62.4455 77.539 62.2149 77.7391 62.0996 78.0822C62.042 78.4252 62.0708 78.8254 62.2149 79.2828Z" fill="#F3F243"/>
<path d="M67.3164 75.9382C67.2011 75.9668 67.1146 75.9954 66.9994 76.024C66.567 76.1955 66.3653 76.4813 66.3364 76.8816L67.374 79.5687L66.7111 79.826L65.2412 76.0526L65.8753 75.8239L66.0482 76.2527C66.1347 75.8239 66.3653 75.538 66.7688 75.3951C66.8841 75.3379 66.9994 75.3379 67.0858 75.3379L67.3164 75.9382Z" fill="#F3F243"/>
<path d="M68.325 74.852L68.5556 75.3094C68.6997 74.8234 68.9879 74.4804 69.4491 74.3089C70.2561 73.9659 70.8325 74.2517 71.2072 75.1379L72.2448 77.5963L71.6107 77.8536L70.5443 75.3952C70.429 75.1379 70.2849 74.9664 70.112 74.8806C69.939 74.7949 69.7085 74.8234 69.4491 74.9378C69.2473 75.0236 69.0744 75.1665 68.9591 75.338C68.8438 75.5095 68.7862 75.7096 68.7862 75.9383L69.9102 78.5969L69.2761 78.8541L67.6909 75.1379L68.325 74.852Z" fill="#F3F243"/>
<path d="M74.954 76.4526C74.464 76.6813 73.974 76.7099 73.5129 76.5383C73.0517 76.3668 72.677 75.9952 72.4176 75.4521L72.36 75.3377C72.1871 74.9661 72.1006 74.623 72.1006 74.28C72.1006 73.937 72.1871 73.6225 72.36 73.3367C72.5329 73.0508 72.7635 72.8507 73.0517 72.7078C73.5417 72.4791 73.974 72.4791 74.4063 72.6506C74.8387 72.8221 75.1557 73.2223 75.4439 73.8226L75.5592 74.0799L73.0517 75.252C73.2246 75.595 73.484 75.8523 73.7723 75.9666C74.0893 76.081 74.4063 76.081 74.6946 75.938C74.9251 75.8237 75.0981 75.7093 75.1845 75.5378C75.2998 75.3663 75.3863 75.1948 75.4151 74.9947L75.9339 75.109C75.9339 75.7093 75.5592 76.1667 74.954 76.4526ZM73.3111 73.1937C73.0517 73.3081 72.8788 73.5082 72.7923 73.7655C72.7058 74.0227 72.7347 74.3372 72.85 74.6802L74.6946 73.8226L74.6657 73.7655C74.4928 73.451 74.2911 73.2509 74.0605 73.1365C73.8299 73.0794 73.5705 73.0794 73.3111 73.1937Z" fill="#F3F243"/>
<path d="M76.1359 73.5368C75.9629 73.1937 75.8477 72.8221 75.8477 72.4791C75.8477 72.136 75.9053 71.8216 76.0782 71.5357C76.2512 71.2498 76.4817 71.0211 76.7988 70.8782C77.2888 70.6209 77.7787 70.5924 78.2687 70.7639C78.7587 70.9354 79.1334 71.307 79.4216 71.8787L79.4504 71.9359C79.6233 72.279 79.7386 72.622 79.7386 72.9936C79.7386 73.3652 79.681 73.6511 79.5081 73.937C79.3351 74.2228 79.1045 74.4515 78.7587 74.623C78.2687 74.8803 77.7787 74.9089 77.2888 74.7374C76.7988 74.5659 76.4241 74.1943 76.1359 73.6225V73.5368ZM76.77 73.2795C76.9717 73.6797 77.2311 73.937 77.5482 74.0799C77.8652 74.2228 78.1822 74.2228 78.4705 74.0513C78.7875 73.8798 78.9604 73.6511 79.0181 73.3081C79.0757 72.965 78.9893 72.5648 78.7587 72.136C78.5569 71.7358 78.2975 71.4785 77.9805 71.3356C77.6634 71.1927 77.3464 71.1927 77.0294 71.3642C76.7123 71.5357 76.5394 71.7644 76.4817 72.1074C76.4529 72.4219 76.5394 72.8221 76.77 73.2795Z" fill="#F3F243"/>
<path d="M82.8225 71.0212C82.736 70.8497 82.5919 70.7639 82.419 70.7639C82.2461 70.7354 81.9867 70.7925 81.6408 70.9069C81.2949 71.0212 81.0067 71.0784 80.7761 71.0784C80.5456 71.0784 80.3438 71.0498 80.1997 70.9926C80.0268 70.9069 79.9115 70.7925 79.7962 70.621C79.6233 70.3351 79.6233 70.0207 79.7386 69.6777C79.8538 69.3346 80.1132 69.0488 80.4879 68.8486C80.8914 68.62 81.2661 68.5342 81.6408 68.5914C82.0155 68.6485 82.2749 68.8486 82.4766 69.1631L81.8714 69.5061C81.7849 69.3346 81.612 69.2489 81.4102 69.1917C81.2085 69.1631 80.9779 69.1917 80.7761 69.306C80.5456 69.4204 80.4015 69.5919 80.3438 69.7348C80.2862 69.9063 80.2862 70.0493 80.3726 70.2208C80.4591 70.3637 80.5744 70.4495 80.7473 70.4495C80.9203 70.4495 81.1508 70.4209 81.4967 70.3066C81.8426 70.1922 82.1308 70.135 82.3614 70.135C82.5919 70.1065 82.7937 70.1636 82.9666 70.2208C83.1395 70.3066 83.2837 70.4209 83.3701 70.621C83.5431 70.9355 83.5719 71.2499 83.4278 71.593C83.2836 71.936 83.0243 72.2219 82.6207 72.4505C82.3325 72.6221 82.0731 72.7078 81.7849 72.7364C81.4967 72.765 81.2661 72.7078 81.0355 72.6221C80.805 72.5363 80.632 72.3648 80.5167 72.1647L81.122 71.8216C81.2373 72.0218 81.4102 72.1361 81.6408 72.1647C81.8714 72.1933 82.102 72.1361 82.3325 71.9932C82.5631 71.8502 82.7072 71.7073 82.7937 71.5358C82.909 71.3357 82.909 71.1642 82.8225 71.0212Z" fill="#F3F243"/>
</svg>
